<svg width="30" height="30" viewBox="0 0 30 30" fill="none" xmlns="http://www.w3.org/2000/svg">
<circle cx="15" cy="15" r="14.5" stroke="#D1D5DB"/>
<path d="M23.25 8.24973C22.5318 8.75634 21.7366 9.14381 20.895 9.39723C20.4433 8.87786 19.843 8.50975 19.1753 8.34267C18.5076 8.1756 17.8046 8.21763 17.1616 8.46307C16.5185 8.70851 15.9663 9.14553 15.5797 9.71502C15.1931 10.2845 14.9908 10.959 15 11.6472V12.3972C13.682 12.4314 12.376 12.1391 11.1983 11.5463C10.0206 10.9535 9.00774 10.0787 8.25 8.99973C8.25 8.99973 5.25 15.7497 12 18.7497C10.4554 19.7982 8.61537 20.3239 6.75 20.2497C13.5 23.9997 21.75 20.2497 21.75 11.6247C21.7493 11.4158 21.7292 11.2074 21.69 11.0022C22.4555 10.2473 22.9956 9.29426 23.25 8.24973Z" fill="#374151" stroke="#374151" stroke-linecap="round" stroke-linejoin="round"/>
</svg>
